<svg width="800" height="529" viewBox="0 0 800 529" fill="none" xmlns="http://www.w3.org/2000/svg">
<path d="M397.098 528.886C616.408 528.886 794.195 518.503 794.195 505.696C794.195 492.888 616.408 482.505 397.098 482.505C177.787 482.505 0 492.888 0 505.696C0 518.503 177.787 528.886 397.098 528.886Z" fill="#F5F5F5"/>
<path d="M405.8 223.909H367.419L385.852 165.545H424.232L405.8 223.909Z" fill="#0EC3BF"/>
<path opacity="0.2" d="M380.471 182.585H418.852L424.232 165.545H385.851L380.471 182.585Z" fill="black"/>
<path d="M436.183 220.198H362.731V229.072H436.183V220.198Z" fill="#0EC3BF"/>
<path opacity="0.5" d="M436.183 220.198H362.731V229.072H436.183V220.198Z" fill="white"/>
<path opacity="0.6" d="M399.457 220.198H362.731V229.072H399.457V220.198Z" fill="white"/>
<path d="M720.763 152.868L707.388 0L498.046 18.4572H287.1L74.5269 0L70.4308 4.09613L83.8047 156.964L296.371 175.421H507.328L716.667 156.964L720.763 152.868Z" fill="#0EC3BF"/>
<path opacity="0.2" d="M720.763 152.868L707.387 0L498.046 18.4572H287.1L74.5269 0L87.9007 152.868L300.467 171.325H511.424L720.763 152.868Z" fill="white"/>
<path opacity="0.8" d="M701.854 6.7149L504.693 23.9729L516.999 164.553L714.159 147.295L701.854 6.7149Z" fill="white"/>
<path opacity="0.5" d="M541.674 38.2201C540.476 38.3245 539.419 37.4315 539.313 36.2252C539.206 35.0169 540.093 33.9539 541.291 33.8474L590.875 29.4769C592.073 29.3704 593.13 30.2654 593.236 31.4717C593.343 32.68 592.456 33.745 591.258 33.8495L541.674 38.2201Z" fill="#263238"/>
<g opacity="0.5">
<path opacity="0.5" d="M541.674 38.2201C540.476 38.3245 539.419 37.4315 539.313 36.2252C539.206 35.0169 540.093 33.9539 541.291 33.8474L590.875 29.4769C592.073 29.3704 593.13 30.2654 593.236 31.4717C593.343 32.68 592.456 33.745 591.258 33.8495L541.674 38.2201Z" fill="white"/>
</g>
<path opacity="0.5" d="M622.338 31.1087C621.14 31.2152 620.083 30.3202 619.976 29.1139C619.87 27.9055 620.757 26.8406 621.955 26.7361L671.539 22.3655C672.737 22.259 673.793 23.154 673.9 24.3603C674.006 25.5687 673.12 26.6337 671.921 26.7381L622.338 31.1087Z" fill="#263238"/>
<g opacity="0.5">
<path opacity="0.5" d="M622.338 31.1087C621.14 31.2152 620.083 30.3202 619.976 29.1139C619.87 27.9055 620.757 26.8406 621.955 26.7361L671.539 22.3655C672.737 22.259 673.793 23.154 673.9 24.3603C674.006 25.5687 673.12 26.6337 671.921 26.7381L622.338 31.1087Z" fill="white"/>
</g>
<path d="M594.318 64.8893C595.543 78.8775 585.282 91.2089 571.4 92.4337C557.518 93.6584 545.275 83.3096 544.05 69.3213C542.826 55.333 553.088 43.0016 566.968 41.7768C580.848 40.5541 593.093 50.901 594.318 64.8893Z" fill="#0EC3BF"/>
<g opacity="0.9">
<path d="M558.255 80.2454L555.39 80.4974C554.651 80.5629 553.997 80.0099 553.932 79.2644L552.746 65.7144C552.681 64.9689 553.227 64.3115 553.969 64.2459L556.834 63.994C557.573 63.9285 558.227 64.4815 558.292 65.227L559.478 78.777C559.544 79.5225 558.997 80.1799 558.255 80.2454Z" fill="white"/>
<path d="M562.008 62.9906C563.853 61.1555 568.477 56.0026 568.455 50.4482C568.445 47.7222 572.203 46.5671 573.569 48.9224C574.593 50.6858 574.835 54.0713 572.987 60.3875L580.067 59.7628C581.96 59.5969 583.77 60.5759 584.678 62.2574C585.208 63.2384 585.38 64.3771 585.169 65.4728L583.101 76.1678C582.64 78.5477 580.491 80.2087 578.089 80.0407L564.545 79.0863C563.423 79.0064 562.524 78.1176 562.425 76.9871L561.36 64.8113C561.299 64.1334 561.528 63.4678 562.008 62.9906Z" fill="white"/>
</g>
<path opacity="0.9" d="M674.981 57.7782C673.756 43.7899 661.513 33.443 647.631 34.6657C633.75 35.8905 623.489 48.2219 624.713 62.2102C625.938 76.1985 638.182 86.5453 652.063 85.3226C665.945 84.0978 676.206 71.7665 674.981 57.7782Z" fill="white"/>
<path d="M636.807 48.9674L633.942 49.2193C633.203 49.2848 632.654 49.9423 632.719 50.6878L633.905 64.2378C633.971 64.9832 634.624 65.5362 635.363 65.4707L638.228 65.2188C638.97 65.1532 639.517 64.4958 639.451 63.7503L638.265 50.2003C638.2 49.4548 637.546 48.9039 636.807 48.9674Z" fill="#0EC3BF"/>
<path d="M643.498 65.3015C645.634 66.7863 651.082 71.0504 652.024 76.5228C652.487 79.2078 656.389 79.6871 657.325 77.1311C658.025 75.2141 657.677 71.8389 654.762 65.9446L661.843 65.3199C663.735 65.152 665.347 63.8719 665.947 62.0573C666.299 60.9985 666.273 59.8475 665.873 58.805L661.98 48.6364C661.113 46.3732 658.709 45.1137 656.372 45.7015L643.201 49.0112C642.109 49.2856 641.378 50.3199 641.477 51.4484L642.542 63.6241C642.599 64.3 642.941 64.9164 643.498 65.3015Z" fill="#0EC3BF"/>
<path d="M562.631 130.946L547.678 132.264L549.202 149.562L564.156 148.244L562.631 130.946Z" fill="#0EC3BF"/>
<path opacity="0.9" d="M577.91 133.41L562.957 134.728L564.149 148.254L579.102 146.936L577.91 133.41Z" fill="white"/>
<path opacity="0.9" d="M606.28 113.191L591.326 114.509L594.068 145.608L609.021 144.29L606.28 113.191Z" fill="white"/>
<path opacity="0.9" d="M635.862 106.852L620.908 108.17L623.976 142.97L638.93 141.652L635.862 106.852Z" fill="white"/>
<path opacity="0.9" d="M666.445 111.976L651.491 113.294L653.876 140.346L668.83 139.028L666.445 111.976Z" fill="white"/>
<path d="M591.572 117.303L576.618 118.622L579.113 146.926L594.067 145.608L591.572 117.303Z" fill="#0EC3BF"/>
<path d="M620.577 104.462L605.623 105.78L609.018 144.299L623.972 142.981L620.577 104.462Z" fill="#0EC3BF"/>
<path d="M651.142 109.237L636.188 110.555L638.929 141.654L653.883 140.336L651.142 109.237Z" fill="#0EC3BF"/>
<path d="M679.536 89.3826L664.582 90.7007L668.841 139.016L683.794 137.698L679.536 89.3826Z" fill="#0EC3BF"/>
<path opacity="0.8" d="M81.2568 6.68311L93.5555 147.262L293.744 164.642L281.445 24.065L81.2568 6.68311Z" fill="white"/>
<path d="M224.228 71.7701L116.793 62.4412C112.267 62.0479 108.279 58.089 107.886 53.5976L106.532 38.1163C106.139 33.6249 109.489 30.3029 114.016 30.6962L221.451 40.0251C225.977 40.4183 229.965 44.3772 230.356 48.8686L231.71 64.35C232.105 68.8393 228.755 72.1634 224.228 71.7701Z" fill="white"/>
<path d="M134.554 48.231C135.025 53.6031 131.017 57.5784 125.602 57.1073C120.188 56.6383 115.419 51.9012 114.947 46.527C114.478 41.155 118.484 37.1796 123.9 37.6507C129.315 38.1217 134.085 42.8589 134.554 48.231Z" fill="#0EC3BF"/>
<path d="M147.1 43.8589C145.925 43.7565 144.89 42.7284 144.788 41.561C144.685 40.3936 145.556 39.5313 146.731 39.6337L212.577 45.3499C213.752 45.4523 214.789 46.4804 214.889 47.6458C214.991 48.8132 214.121 49.6754 212.945 49.573L147.1 43.8589Z" fill="#263238"/>
<path d="M148.433 59.0903C147.258 58.9879 146.224 57.9598 146.121 56.7924C146.019 55.625 146.889 54.7628 148.065 54.8652L186.632 58.2138C187.808 58.3162 188.842 59.3443 188.944 60.5117C189.047 61.6791 188.176 62.5413 187.001 62.4389L148.433 59.0903Z" fill="#263238"/>
<path d="M147.766 51.476C146.59 51.3736 145.556 50.3455 145.453 49.1801C145.351 48.0127 146.221 47.1505 147.397 47.2529L203.248 52.1027C204.423 52.2051 205.46 53.2332 205.56 54.3986C205.662 55.566 204.792 56.4282 203.616 56.3258L147.766 51.476Z" fill="#263238"/>
<g opacity="0.5">
<path d="M147.1 43.8589C145.925 43.7565 144.89 42.7284 144.788 41.561C144.685 40.3936 145.556 39.5313 146.731 39.6337L212.577 45.3499C213.752 45.4523 214.789 46.4804 214.889 47.6458C214.991 48.8132 214.121 49.6754 212.945 49.573L147.1 43.8589Z" fill="white"/>
<path d="M148.433 59.0903C147.258 58.9879 146.224 57.9598 146.121 56.7924C146.019 55.625 146.889 54.7628 148.065 54.8652L186.632 58.2138C187.808 58.3162 188.842 59.3443 188.944 60.5117C189.047 61.6791 188.176 62.5413 187.001 62.4389L148.433 59.0903Z" fill="white"/>
<path d="M147.766 51.476C146.59 51.3736 145.556 50.3455 145.453 49.1801C145.351 48.0127 146.221 47.1505 147.397 47.2529L203.248 52.1027C204.423 52.2051 205.46 53.2332 205.56 54.3986C205.662 55.566 204.792 56.4282 203.616 56.3258L147.766 51.476Z" fill="white"/>
</g>
<path d="M229.84 25.3404L217.279 24.384C215.553 24.2529 214.289 25.537 214.459 27.2533L215.487 37.7025C215.655 39.4147 217.185 40.9119 218.909 41.047L222.545 41.3358L224.327 43.8857C224.931 44.7499 226.143 44.8359 226.575 44.0433L227.853 41.6963L231.468 41.983C233.199 42.1202 234.469 40.834 234.299 39.1137L233.272 28.6849C233.102 26.9686 231.566 25.4715 229.84 25.3404Z" fill="#0EC3BF"/>
<g opacity="0.9">
<path d="M220.177 33.8298C219.096 32.7709 218.569 31.6711 218.485 30.7187C218.344 29.0946 219.339 28.1075 220.994 28.2508C222.537 28.3839 223.124 29.1397 224.118 30.2436C224.931 29.2954 225.396 28.6318 226.938 28.7669C228.593 28.9103 229.778 30.0879 229.92 31.7121C230.004 32.6644 229.664 33.6905 228.752 34.5752L224.834 38.44L220.177 33.8298Z" fill="white"/>
</g>
<path d="M253.594 111.538L146.158 102.209C141.632 101.816 137.644 97.8566 137.251 93.3652L135.897 77.8839C135.504 73.3925 138.855 70.0705 143.381 70.4637L250.816 79.7927C255.343 80.1859 259.33 84.1448 259.721 88.6362L261.075 104.118C261.468 108.607 258.118 111.931 253.594 111.538Z" fill="white"/>
<path d="M163.919 87.9991C164.388 93.3711 160.382 97.3464 154.967 96.8754C149.552 96.4043 144.784 91.6692 144.313 86.2951C143.844 80.923 147.85 76.9477 153.265 77.4188C158.678 77.8898 163.448 82.627 163.919 87.9991Z" fill="#0EC3BF"/>
<path d="M176.465 83.6265C175.29 83.5241 174.253 82.4959 174.153 81.3285C174.051 80.1611 174.921 79.2989 176.097 79.4013L241.942 85.1175C243.117 85.2199 244.154 86.248 244.254 87.4154C244.357 88.5828 243.486 89.445 242.311 89.3426L176.465 83.6265Z" fill="#263238"/>
<path d="M177.797 98.8579C176.621 98.7555 175.585 97.7274 175.484 96.56C175.382 95.3926 176.252 94.5304 177.428 94.6328L215.993 97.9813C217.169 98.0837 218.205 99.1119 218.305 100.279C218.408 101.445 217.537 102.309 216.362 102.207L177.797 98.8579Z" fill="#263238"/>
<path d="M177.131 91.2422C175.955 91.1398 174.921 90.1117 174.818 88.9443C174.716 87.7769 175.586 86.9146 176.762 87.017L232.613 91.8669C233.788 91.9693 234.823 92.9974 234.925 94.1627C235.028 95.3301 234.157 96.1924 232.982 96.09L177.131 91.2422Z" fill="#263238"/>
<g opacity="0.5">
<path d="M176.465 83.6265C175.29 83.5241 174.253 82.4959 174.153 81.3285C174.051 80.1611 174.921 79.2989 176.097 79.4013L241.942 85.1175C243.117 85.2199 244.154 86.248 244.254 87.4154C244.357 88.5828 243.486 89.445 242.311 89.3426L176.465 83.6265Z" fill="white"/>
<path d="M177.797 98.8579C176.621 98.7555 175.585 97.7274 175.484 96.56C175.382 95.3926 176.252 94.5304 177.428 94.6328L215.993 97.9813C217.169 98.0837 218.205 99.1119 218.305 100.279C218.408 101.445 217.537 102.309 216.362 102.207L177.797 98.8579Z" fill="white"/>
<path d="M177.131 91.2422C175.955 91.1398 174.921 90.1117 174.818 88.9443C174.716 87.7769 175.586 86.9146 176.762 87.017L232.613 91.8669C233.788 91.9693 234.823 92.9974 234.925 94.1627C235.028 95.3301 234.157 96.1924 232.982 96.09L177.131 91.2422Z" fill="white"/>
</g>
<path d="M259.203 65.1072L246.643 64.1508C244.916 64.0197 243.652 65.3039 243.822 67.0201L244.85 77.4694C245.018 79.1815 246.548 80.6787 248.273 80.8139L251.908 81.1026L253.69 83.6525C254.294 84.5168 255.507 84.6028 255.939 83.8102L257.217 81.4631L260.832 81.7498C262.562 81.8871 263.832 80.6009 263.662 78.8805L262.636 68.4517C262.466 66.7354 260.93 65.2383 259.203 65.1072Z" fill="#0EC3BF"/>
<g opacity="0.9">
<path d="M249.542 73.5951C248.461 72.5383 247.935 71.4365 247.851 70.4841C247.709 68.86 248.705 67.8728 250.36 68.0162C251.902 68.1493 252.49 68.9051 253.483 70.009C254.296 69.0607 254.761 68.3971 256.303 68.5323C257.958 68.6757 259.144 69.8533 259.285 71.4774C259.369 72.4277 259.029 73.4559 258.118 74.3386L254.2 78.2033L249.542 73.5951Z" fill="white"/>
</g>
<path d="M239.554 150.062L132.119 140.735C127.592 140.342 123.605 136.383 123.212 131.892L121.858 116.41C121.465 111.919 124.815 108.597 129.341 108.99L236.777 118.317C241.303 118.71 245.291 122.669 245.682 127.161L247.036 142.642C247.431 147.133 244.08 150.455 239.554 150.062Z" fill="white"/>
<path d="M149.879 126.524C150.35 131.896 146.342 135.871 140.927 135.402C135.512 134.931 130.742 130.196 130.273 124.822C129.804 119.45 133.81 115.475 139.225 115.946C144.64 116.415 149.41 121.152 149.879 126.524Z" fill="#0EC3BF"/>
<path d="M162.426 122.151C161.25 122.049 160.214 121.021 160.114 119.855C160.011 118.688 160.882 117.826 162.057 117.928L227.902 123.644C229.078 123.747 230.112 124.775 230.215 125.94C230.317 127.108 229.447 127.97 228.271 127.867L162.426 122.151Z" fill="#263238"/>
<path d="M163.759 137.385C162.583 137.282 161.549 136.254 161.447 135.089C161.344 133.921 162.215 133.059 163.39 133.162L216.403 137.764C217.578 137.866 218.612 138.894 218.715 140.059C218.817 141.227 217.947 142.089 216.771 141.987L163.759 137.385Z" fill="#263238"/>
<path d="M163.094 129.767C161.918 129.665 160.882 128.637 160.781 127.472C160.679 126.304 161.549 125.442 162.725 125.544L210.32 129.677C211.496 129.78 212.53 130.808 212.632 131.973C212.735 133.141 211.864 134.003 210.689 133.901L163.094 129.767Z" fill="#263238"/>
<g opacity="0.5">
<path d="M162.426 122.151C161.25 122.049 160.214 121.021 160.114 119.855C160.011 118.688 160.882 117.826 162.057 117.928L227.902 123.644C229.078 123.747 230.112 124.775 230.215 125.94C230.317 127.108 229.447 127.97 228.271 127.867L162.426 122.151Z" fill="white"/>
<path d="M163.759 137.385C162.583 137.282 161.549 136.254 161.447 135.089C161.344 133.921 162.215 133.059 163.39 133.162L216.403 137.764C217.578 137.866 218.612 138.894 218.715 140.059C218.817 141.227 217.947 142.089 216.771 141.987L163.759 137.385Z" fill="white"/>
<path d="M163.094 129.767C161.918 129.665 160.882 128.637 160.781 127.472C160.679 126.304 161.549 125.442 162.725 125.544L210.32 129.677C211.496 129.78 212.53 130.808 212.632 131.973C212.735 133.141 211.864 134.003 210.689 133.901L163.094 129.767Z" fill="white"/>
</g>
<path d="M245.526 107.762L232.965 106.805C231.239 106.674 229.975 107.958 230.145 109.674L231.173 120.124C231.341 121.836 232.871 123.333 234.596 123.468L238.231 123.757L240.013 126.307C240.617 127.171 241.829 127.257 242.262 126.464L243.54 124.117L247.154 124.404C248.885 124.541 250.155 123.255 249.985 121.535L248.959 111.106C248.789 109.392 247.253 107.893 245.526 107.762Z" fill="#0EC3BF"/>
<path opacity="0.9" d="M235.943 119.48C235.431 119.435 234.979 118.987 234.934 118.479L234.626 114.962C234.581 114.452 234.962 114.078 235.474 114.121C235.986 114.166 236.439 114.614 236.484 115.122L236.791 118.639C236.836 119.149 236.457 119.523 235.943 119.48Z" fill="white"/>
<path opacity="0.9" d="M237.688 114.135C238.307 113.645 239.857 112.238 239.853 110.434C239.851 109.549 241.111 109.389 241.567 110.233C241.909 110.866 241.989 111.978 241.367 113.924L243.738 114.131C244.371 114.186 244.977 114.608 245.28 115.206C245.457 115.556 245.516 115.935 245.444 116.279L244.746 119.634C244.59 120.381 243.869 120.795 243.067 120.602L238.532 119.511C238.155 119.421 237.856 119.079 237.823 118.706L237.471 114.69C237.449 114.464 237.526 114.262 237.688 114.135Z" fill="white"/>
<path opacity="0.8" d="M293.776 24.6016L306.075 165.181H504.744L492.445 24.6016H293.776Z" fill="white"/>
<g opacity="0.2">
<path d="M299.878 164.526C299.03 164.526 298.282 163.838 298.206 162.99L294.333 118.727C294.26 117.879 294.886 117.191 295.734 117.191C296.582 117.191 297.33 117.879 297.406 118.727L301.278 162.99C301.354 163.838 300.725 164.526 299.878 164.526Z" fill="black"/>
</g>
<g opacity="0.2">
<path d="M295.288 112.071C294.44 112.071 293.692 111.383 293.617 110.535L288.122 47.727C288.048 46.8791 288.675 46.1909 289.523 46.1909C290.371 46.1909 291.118 46.8791 291.194 47.727L296.689 110.535C296.765 111.383 296.138 112.071 295.288 112.071Z" fill="black"/>
</g>
<g opacity="0.2">
<path d="M289.107 41.4117C288.259 41.4117 287.512 40.7236 287.436 39.8757L286.291 26.7926C286.217 25.9447 286.844 25.2566 287.692 25.2566C288.54 25.2566 289.287 25.9447 289.363 26.7926L290.508 39.8757C290.584 40.7236 289.955 41.4117 289.107 41.4117Z" fill="black"/>
</g>
<g opacity="0.2">
<path d="M510.826 164.525C509.978 164.525 509.231 163.837 509.155 162.989L503.521 98.5859C503.447 97.738 504.074 97.0498 504.921 97.0498C505.769 97.0498 506.517 97.738 506.593 98.5859L512.227 162.989C512.301 163.837 511.674 164.525 510.826 164.525Z" fill="black"/>
</g>
<g opacity="0.2">
<path d="M504.535 92.612C503.687 92.612 502.939 91.9239 502.864 91.076L498.475 40.8984C498.401 40.0505 499.028 39.3623 499.876 39.3623C500.723 39.3623 501.471 40.0505 501.547 40.8984L505.936 91.076C506.009 91.9259 505.383 92.612 504.535 92.612Z" fill="black"/>
</g>
<g opacity="0.2">
<path d="M499.349 33.3342C498.501 33.3342 497.753 32.646 497.678 31.7981L497.239 26.7926C497.166 25.9447 497.792 25.2566 498.64 25.2566C499.488 25.2566 500.236 25.9447 500.311 26.7926L500.75 31.7981C500.823 32.646 500.197 33.3342 499.349 33.3342Z" fill="black"/>
</g>
<path d="M469.275 86.4895C469.173 85.3221 470.035 84.3779 471.202 84.3779C472.37 84.3779 473.398 85.3241 473.5 86.4895L475.929 114.267C476.032 115.435 475.169 116.379 474.002 116.379C472.837 116.379 471.806 115.433 471.706 114.267L469.275 86.4895Z" fill="#0EC3BF"/>
<path d="M308.723 36.424C307.556 36.424 306.528 35.4778 306.425 34.3125C306.323 33.1451 307.187 32.2009 308.353 32.2009H356.611C357.779 32.2009 358.807 33.1471 358.907 34.3125C359.009 35.4799 358.147 36.424 356.98 36.424H308.723Z" fill="#263238"/>
<path d="M310.056 51.6558C308.891 51.6558 307.861 50.7095 307.76 49.5442C307.658 48.3768 308.52 47.4326 309.688 47.4326H349.754C350.919 47.4326 351.95 48.3788 352.05 49.5442C352.152 50.7116 351.288 51.6558 350.123 51.6558H310.056Z" fill="#263238"/>
<path d="M309.391 44.0385C308.224 44.0385 307.195 43.0923 307.093 41.927C306.991 40.7596 307.855 39.8154 309.02 39.8154H340.894C342.062 39.8154 343.09 40.7616 343.192 41.927C343.295 43.0944 342.43 44.0385 341.265 44.0385H309.391Z" fill="#263238"/>
<g opacity="0.5">
<path d="M308.723 36.424C307.556 36.424 306.528 35.4778 306.425 34.3125C306.323 33.1451 307.187 32.2009 308.353 32.2009H356.611C357.779 32.2009 358.807 33.1471 358.907 34.3125C359.009 35.4799 358.147 36.424 356.98 36.424H308.723Z" fill="white"/>
<path d="M310.056 51.6558C308.891 51.6558 307.861 50.7095 307.76 49.5442C307.658 48.3768 308.52 47.4326 309.688 47.4326H349.754C350.919 47.4326 351.95 48.3788 352.05 49.5442C352.152 50.7116 351.288 51.6558 350.123 51.6558H310.056Z" fill="white"/>
<path d="M309.391 44.0385C308.224 44.0385 307.195 43.0923 307.093 41.927C306.991 40.7596 307.855 39.8154 309.02 39.8154H340.894C342.062 39.8154 343.09 40.7616 343.192 41.927C343.295 43.0944 342.43 44.0385 341.265 44.0385H309.391Z" fill="white"/>
</g>
<path d="M480.804 69.1835C481.332 75.2191 476.867 80.114 470.83 80.114C464.792 80.114 459.471 75.2212 458.945 69.1835C458.416 63.1478 462.881 58.2529 468.919 58.2529C474.955 58.255 480.275 63.1478 480.804 69.1835Z" fill="#0EC3BF"/>
<path d="M464.495 74.3979C463.829 74.3979 463.241 73.8572 463.184 73.1916L462.78 68.5896C462.723 67.924 463.215 67.3833 463.88 67.3833C464.546 67.3833 465.134 67.924 465.191 68.5896L465.594 73.1916C465.654 73.8593 465.16 74.3979 464.495 74.3979Z" fill="white"/>
<path d="M466.756 67.1516C467.559 66.4348 469.572 64.4031 469.564 62.0253C469.56 60.8579 471.194 60.5056 471.788 61.5645C472.232 62.3591 472.337 63.8173 471.532 66.4512H474.61C475.434 66.4512 476.22 66.9386 476.613 67.6943C476.843 68.1346 476.918 68.6282 476.826 69.0911L475.923 73.5928C475.722 74.5943 474.786 75.2251 473.742 75.0612L467.852 74.1416C467.364 74.0658 466.973 73.6501 466.93 73.1626L466.471 67.9073C466.447 67.6144 466.547 67.338 466.756 67.1516Z" fill="white"/>
<path d="M486.262 131.574C485.733 125.538 480.413 120.643 474.377 120.643C468.341 120.643 463.874 125.536 464.403 131.574C464.931 137.609 470.252 142.504 476.288 142.504C482.323 142.504 486.79 137.609 486.262 131.574Z" fill="#0EC3BF"/>
<path d="M469.041 126.359C468.376 126.359 467.882 126.9 467.942 127.565L468.345 132.167C468.404 132.833 468.99 133.374 469.656 133.374C470.321 133.374 470.815 132.833 470.756 132.167L470.352 127.565C470.295 126.9 469.707 126.359 469.041 126.359Z" fill="white"/>
<path d="M472.568 133.605C473.496 134.322 475.863 136.354 476.273 138.732C476.474 139.899 478.17 140.251 478.577 139.192C478.882 138.398 478.731 136.94 477.465 134.306H480.543C481.367 134.306 482.067 133.818 482.329 133.063C482.483 132.622 482.47 132.129 482.298 131.668L480.609 127.166C480.232 126.165 479.187 125.534 478.172 125.698L472.443 126.617C471.968 126.693 471.651 127.109 471.694 127.596L472.152 132.85C472.179 133.142 472.326 133.419 472.568 133.605Z" fill="white"/>
<path d="M442.028 141.29C462.679 119.715 460.333 83.9544 436.787 61.4155C413.241 38.8766 377.411 38.0947 356.76 59.6691C336.108 81.2434 338.455 117.004 362.001 139.543C385.547 162.082 421.376 162.864 442.028 141.29Z" fill="#0EC3BF"/>
<path opacity="0.6" d="M435.832 60.5219C424.715 50.298 410.039 43.9756 394.439 43.9756C363.239 43.9756 340.159 69.2692 342.889 100.467H399.381L435.832 60.5219Z" fill="white"/>
<path opacity="0.2" d="M355.939 60.5219L399.381 100.467L394.439 43.9756C378.839 43.9756 365.268 50.3 355.939 60.5219Z" fill="black"/>
<path d="M355.939 60.5219L399.381 100.467L394.439 43.9756C378.839 43.9756 365.268 50.3 355.939 60.5219Z" fill="#0EC3BF"/>
<path opacity="0.3" d="M355.939 60.5219L399.381 100.467L394.439 43.9756C378.839 43.9756 365.268 50.3 355.939 60.5219Z" fill="black"/>
<path opacity="0.3" d="M404.323 156.961C435.523 156.961 458.603 131.667 455.873 100.469H399.381L362.929 140.415C374.046 150.639 388.723 156.961 404.323 156.961Z" fill="white"/>
<path d="M441.292 147.305C441.956 154.889 436.346 161.037 428.762 161.037C421.178 161.037 414.493 154.889 413.83 147.305C413.166 139.721 418.776 133.572 426.36 133.572C433.942 133.572 440.627 139.721 441.292 147.305Z" fill="#263238"/>
<path d="M422.792 149.588C421.539 148.456 420.928 147.213 420.832 146.103C420.666 144.206 421.819 142.942 423.736 142.942C425.522 142.942 426.206 143.77 427.355 144.968C428.297 143.77 428.834 142.942 430.62 142.942C432.537 142.942 433.911 144.206 434.077 146.103C434.173 147.213 433.782 148.456 432.725 149.588L428.191 154.534L422.792 149.588Z" fill="#0EC3BF"/>
<path d="M363.822 78.4935C364.486 86.0775 358.876 92.2258 351.292 92.2258C343.708 92.2258 337.024 86.0775 336.36 78.4935C335.696 70.9095 341.306 64.7612 348.89 64.7612C356.474 64.7612 363.159 70.9095 363.822 78.4935Z" fill="#263238"/>
<path d="M358.739 78.4927C359.157 83.2688 355.624 87.1417 350.846 87.1417C346.07 87.1417 341.859 83.2688 341.439 78.4927C341.021 73.7166 344.554 69.8438 349.332 69.8438C354.11 69.8438 358.321 73.7166 358.739 78.4927Z" fill="#0EC3BF"/>
<path opacity="0.5" d="M358.739 78.4927C359.157 83.2688 355.624 87.1417 350.846 87.1417C346.07 87.1417 341.859 83.2688 341.439 78.4927C341.021 73.7166 344.554 69.8438 349.332 69.8438C354.11 69.8438 358.321 73.7166 358.739 78.4927Z" fill="white"/>
<path d="M353.258 80.3268C351.64 81.9488 349.148 81.9529 347.243 80.3268C346.483 79.6796 345.521 80.7282 346.285 81.3774C348.841 83.5586 352.228 83.5586 354.403 81.3774C355.051 80.7282 353.906 79.6796 353.258 80.3268Z" fill="#0EC3BF"/>
<path d="M347.778 75.6776C347.86 76.6177 347.6 77.3816 347.194 77.3816C346.789 77.3816 346.393 76.6197 346.311 75.6776C346.229 74.7355 346.492 73.9736 346.895 73.9736C347.301 73.9736 347.696 74.7355 347.778 75.6776Z" fill="#0EC3BF"/>
<path d="M353.377 75.6776C353.459 76.6177 353.199 77.3816 352.793 77.3816C352.388 77.3816 351.993 76.6197 351.911 75.6776C351.829 74.7355 352.091 73.9736 352.494 73.9736C352.9 73.9736 353.295 74.7355 353.377 75.6776Z" fill="#0EC3BF"/>
<path d="M447.67 66.0111C448.334 73.5951 442.724 79.7434 435.14 79.7434C427.556 79.7434 420.871 73.5951 420.208 66.0111C419.544 58.4271 425.154 52.2788 432.738 52.2788C440.322 52.2788 447.007 58.4271 447.67 66.0111Z" fill="#263238"/>
<path d="M442.589 66.0108C443.007 70.7869 439.474 74.6598 434.696 74.6598C429.92 74.6598 425.707 70.7869 425.291 66.0108C424.873 61.2347 428.406 57.3618 433.184 57.3618C437.958 57.3618 442.171 61.2347 442.589 66.0108Z" fill="#0EC3BF"/>
<path opacity="0.5" d="M442.589 66.0108C443.007 70.7869 439.474 74.6598 434.696 74.6598C429.92 74.6598 425.707 70.7869 425.291 66.0108C424.873 61.2347 428.406 57.3618 433.184 57.3618C437.958 57.3618 442.171 61.2347 442.589 66.0108Z" fill="white"/>
<path d="M431.31 70.3286C432.928 68.7066 435.421 68.7025 437.326 70.3286C438.085 70.9758 439.048 69.9272 438.284 69.278C435.728 67.0968 432.341 67.0968 430.165 69.278C429.518 69.9272 430.663 70.9758 431.31 70.3286Z" fill="#0EC3BF"/>
<path d="M431.626 63.1952C431.708 64.1373 431.446 64.8992 431.042 64.8992C430.637 64.8992 430.241 64.1373 430.16 63.1952C430.078 62.2551 430.34 61.4912 430.743 61.4912C431.149 61.4912 431.544 62.2531 431.626 63.1952Z" fill="#0EC3BF"/>
<path d="M437.225 63.1952C437.307 64.1373 437.045 64.8992 436.641 64.8992C436.236 64.8992 435.841 64.1373 435.759 63.1952C435.677 62.2551 435.937 61.4912 436.342 61.4912C436.748 61.4912 437.143 62.2531 437.225 63.1952Z" fill="#0EC3BF"/>
<path d="M364.965 120.642C365.629 128.226 360.019 134.375 352.435 134.375C344.851 134.375 338.166 128.226 337.503 120.642C336.839 113.058 342.449 106.91 350.033 106.91C357.615 106.912 364.301 113.058 364.965 120.642Z" fill="#263238"/>
<path d="M359.882 120.643C360.3 125.419 356.767 129.292 351.989 129.292C347.212 129.292 343 125.419 342.584 120.643C342.166 115.867 345.699 111.994 350.477 111.994C355.253 111.994 359.464 115.867 359.882 120.643Z" fill="#0EC3BF"/>
<path opacity="0.5" d="M359.882 120.643C360.3 125.419 356.767 129.292 351.989 129.292C347.212 129.292 343 125.419 342.584 120.643C342.166 115.867 345.699 111.994 350.477 111.994C355.253 111.994 359.464 115.867 359.882 120.643Z" fill="white"/>
<path d="M347.182 123.384C349.76 125.754 353.602 125.754 355.765 123.384L355.638 121.938H347.055L347.182 123.384Z" fill="#0EC3BF"/>
<path d="M350.09 118.049C348.833 117.054 347.405 117.054 346.324 118.049C345.818 118.514 346.678 119.301 347.182 118.838C347.823 118.248 348.628 118.248 349.371 118.838C349.955 119.299 350.678 118.514 350.09 118.049Z" fill="#0EC3BF"/>
<path d="M355.689 118.049C354.432 117.054 353.004 117.054 351.923 118.049C351.417 118.514 352.277 119.301 352.781 118.838C353.422 118.248 354.227 118.248 354.97 118.838C355.554 119.299 356.277 118.514 355.689 118.049Z" fill="#0EC3BF"/>
<path d="M507.087 218.748H443.57V229.072H570.603V224.829L507.087 218.748Z" fill="#0EC3BF"/>
<path opacity="0.6" d="M507.087 218.748H443.57V229.072H570.603V224.829L507.087 218.748Z" fill="white"/>
<path opacity="0.6" d="M507.087 229.072H443.57V218.748L507.087 224.829V229.072Z" fill="white"/>
<g opacity="0.5">
<path d="M710.568 106.561L701.829 6.68311L690.004 7.72555L639.341 153.855L695.9 148.868L710.568 106.561Z" fill="white"/>
</g>
<g opacity="0.5">
<path d="M441.608 165.181L490.346 24.6016H435.517L386.777 165.181H441.608Z" fill="white"/>
</g>
<path opacity="0.5" d="M243.271 160.262L283.268 44.8961L281.445 24.0652L236.998 20.2046L190.044 155.639L243.271 160.262Z" fill="white"/>
<path d="M607.223 249.264H206.189C204.239 249.264 202.66 247.685 202.66 245.735V237.029H610.75V245.735C610.75 247.685 609.17 249.264 607.223 249.264Z" fill="#0EC3BF"/>
<path opacity="0.2" d="M607.223 249.264H206.189C204.239 249.264 202.66 247.685 202.66 245.735V237.029H610.75V245.735C610.75 247.685 609.17 249.264 607.223 249.264Z" fill="black"/>
<path opacity="0.3" d="M387.396 249.264H206.189C204.239 249.264 202.66 247.685 202.66 245.735V237.029H387.396V249.264Z" fill="white"/>
<path d="M619.061 239.313H194.349C192.051 239.313 190.187 237.449 190.187 235.151V233.234C190.187 230.936 192.051 229.072 194.349 229.072H619.061C621.359 229.072 623.222 230.936 623.222 233.234V235.151C623.222 237.449 621.359 239.313 619.061 239.313Z" fill="#0EC3BF"/>
<path opacity="0.4" d="M387.396 239.313H194.349C192.051 239.313 190.187 237.449 190.187 235.151V233.234C190.187 230.936 192.051 229.072 194.349 229.072H387.396V239.313Z" fill="white"/>
<path d="M365.85 495.493H224.204C215.712 495.493 208.804 488.585 208.804 480.092V264.69C208.804 256.199 215.712 249.293 224.204 249.293H365.85C374.341 249.293 381.251 256.201 381.251 264.69V480.092C381.251 488.583 374.343 495.493 365.85 495.493ZM224.204 257.485C220.23 257.485 216.996 260.717 216.996 264.69V480.092C216.996 484.065 220.23 487.301 224.204 487.301H365.85C369.825 487.301 373.059 484.067 373.059 480.092V264.69C373.059 260.717 369.825 257.485 365.85 257.485H224.204Z" fill="#263238"/>
<g opacity="0.4">
<path opacity="0.2" d="M365.85 495.493H224.204C215.712 495.493 208.804 488.585 208.804 480.092V264.69C208.804 256.199 215.712 249.293 224.204 249.293H365.85C374.341 249.293 381.251 256.201 381.251 264.69V480.092C381.251 488.583 374.343 495.493 365.85 495.493ZM224.204 257.485C220.23 257.485 216.996 260.717 216.996 264.69V480.092C216.996 484.065 220.23 487.301 224.204 487.301H365.85C369.825 487.301 373.059 484.067 373.059 480.092V264.69C373.059 260.717 369.825 257.485 365.85 257.485H224.204Z" fill="white"/>
</g>
<path opacity="0.2" d="M365.85 249.293H224.204C216.239 249.293 209.667 255.374 208.884 263.136H217.177C217.892 259.91 220.767 257.485 224.204 257.485H365.85C369.289 257.485 372.164 259.908 372.879 263.136H381.172C380.389 255.372 373.817 249.293 365.85 249.293Z" fill="black"/>
<path d="M586.337 495.493H444.69C436.199 495.493 429.291 488.585 429.291 480.092V264.69C429.291 256.199 436.199 249.293 444.69 249.293H586.337C594.828 249.293 601.738 256.201 601.738 264.69V480.092C601.738 488.583 594.83 495.493 586.337 495.493ZM444.69 257.485C440.717 257.485 437.483 260.717 437.483 264.69V480.092C437.483 484.065 440.717 487.301 444.69 487.301H586.337C590.312 487.301 593.546 484.067 593.546 480.092V264.69C593.546 260.717 590.312 257.485 586.337 257.485H444.69Z" fill="#263238"/>
<path opacity="0.1" d="M586.337 495.493H444.69C436.199 495.493 429.291 488.585 429.291 480.092V264.69C429.291 256.199 436.199 249.293 444.69 249.293H586.337C594.828 249.293 601.738 256.201 601.738 264.69V480.092C601.738 488.583 594.83 495.493 586.337 495.493ZM444.69 257.485C440.717 257.485 437.483 260.717 437.483 264.69V480.092C437.483 484.065 440.717 487.301 444.69 487.301H586.337C590.312 487.301 593.546 484.067 593.546 480.092V264.69C593.546 260.717 590.312 257.485 586.337 257.485H444.69Z" fill="white"/>
<path opacity="0.2" d="M586.337 249.293H444.69C436.725 249.293 430.153 255.374 429.371 263.136H437.663C438.378 259.91 441.252 257.485 444.69 257.485H586.337C589.775 257.485 592.651 259.908 593.366 263.136H601.658C600.876 255.372 594.304 249.293 586.337 249.293Z" fill="black"/>
<path d="M331.619 299.901H173.207C163.679 299.901 155.956 307.624 155.956 317.152V479.037C155.956 488.565 163.679 496.288 173.207 496.288H331.619C341.146 496.288 348.87 488.565 348.87 479.037V317.152C348.87 307.624 341.146 299.901 331.619 299.901Z" fill="#0EC3BF"/>
<path opacity="0.4" d="M331.619 299.901H173.207C163.679 299.901 155.956 307.624 155.956 317.152V479.037C155.956 488.565 163.679 496.288 173.207 496.288H331.619C341.146 496.288 348.87 488.565 348.87 479.037V317.152C348.87 307.624 341.146 299.901 331.619 299.901Z" fill="white"/>
<path opacity="0.1" d="M155.956 478.899V479.037C155.956 488.564 163.679 496.287 173.207 496.287H331.619C341.146 496.287 348.87 488.564 348.87 479.037V478.899H155.956Z" fill="black"/>
<path d="M331.619 496.288H287.702C278.175 496.288 270.451 488.565 270.451 479.037V317.152C270.451 307.624 278.175 299.901 287.702 299.901H331.619C341.147 299.901 348.87 307.624 348.87 317.152V479.037C348.87 488.565 341.147 496.288 331.619 496.288Z" fill="#0EC3BF"/>
<path opacity="0.3" d="M331.619 487.072C336.049 487.072 339.654 483.467 339.654 479.037V317.152C339.654 312.722 336.049 309.117 331.619 309.117H287.702C283.272 309.117 279.668 312.722 279.668 317.152V479.037C279.668 483.467 283.272 487.072 287.702 487.072H331.619Z" fill="white"/>
<path opacity="0.7" d="M333.726 321.919H285.597V334.72H333.726V321.919Z" fill="white"/>
<path opacity="0.7" d="M333.726 337.28H285.596V350.081H333.726V337.28Z" fill="white"/>
<path d="M309.661 408.12C315.198 408.12 319.686 403.632 319.686 398.095C319.686 392.558 315.198 388.07 309.661 388.07C304.124 388.07 299.636 392.558 299.636 398.095C299.636 403.632 304.124 408.12 309.661 408.12Z" fill="#0EC3BF"/>
<g opacity="0.9">
<path d="M311.992 396.11C313.913 398.193 312.621 401.724 309.661 401.736C306.694 401.748 305.422 398.181 307.331 396.11C308.287 395.074 306.739 393.517 305.778 394.56C302.591 398.015 304.732 403.932 309.659 403.932C314.591 403.932 316.727 398.015 313.54 394.56C312.584 393.519 311.033 395.074 311.992 396.11Z" fill="white"/>
<path d="M308.564 392.248C308.564 393.913 308.564 395.58 308.564 397.245C308.564 398.656 310.757 398.658 310.757 397.245C310.757 395.58 310.757 393.913 310.757 392.248C310.757 390.836 308.564 390.834 308.564 392.248Z" fill="white"/>
</g>
<path d="M290.675 430.807C292.372 430.807 293.747 429.431 293.747 427.735C293.747 426.038 292.372 424.663 290.675 424.663C288.979 424.663 287.603 426.038 287.603 427.735C287.603 429.431 288.979 430.807 290.675 430.807Z" fill="#0EC3BF"/>
<path d="M303.333 430.807C305.029 430.807 306.405 429.431 306.405 427.735C306.405 426.038 305.029 424.663 303.333 424.663C301.636 424.663 300.26 426.038 300.26 427.735C300.26 429.431 301.636 430.807 303.333 430.807Z" fill="#0EC3BF"/>
<path d="M315.99 430.807C317.686 430.807 319.062 429.431 319.062 427.735C319.062 426.038 317.686 424.663 315.99 424.663C314.293 424.663 312.917 426.038 312.917 427.735C312.917 429.431 314.293 430.807 315.99 430.807Z" fill="#0EC3BF"/>
<path d="M328.644 430.807C330.341 430.807 331.716 429.431 331.716 427.735C331.716 426.038 330.341 424.663 328.644 424.663C326.948 424.663 325.572 426.038 325.572 427.735C325.572 429.431 326.948 430.807 328.644 430.807Z" fill="#0EC3BF"/>
<path d="M297.004 441.731C298.7 441.731 300.076 440.356 300.076 438.659C300.076 436.962 298.7 435.587 297.004 435.587C295.307 435.587 293.932 436.962 293.932 438.659C293.932 440.356 295.307 441.731 297.004 441.731Z" fill="#0EC3BF"/>
<path d="M309.661 441.731C311.358 441.731 312.733 440.356 312.733 438.659C312.733 436.962 311.358 435.587 309.661 435.587C307.964 435.587 306.589 436.962 306.589 438.659C306.589 440.356 307.964 441.731 309.661 441.731Z" fill="#0EC3BF"/>
<path d="M322.318 441.731C324.015 441.731 325.39 440.355 325.39 438.659C325.39 436.962 324.015 435.586 322.318 435.586C320.621 435.586 319.246 436.962 319.246 438.659C319.246 440.355 320.621 441.731 322.318 441.731Z" fill="#0EC3BF"/>
<path d="M290.675 453.83C292.372 453.83 293.747 452.454 293.747 450.758C293.747 449.061 292.372 447.686 290.675 447.686C288.979 447.686 287.603 449.061 287.603 450.758C287.603 452.454 288.979 453.83 290.675 453.83Z" fill="#0EC3BF"/>
<path d="M303.333 453.83C305.029 453.83 306.405 452.454 306.405 450.758C306.405 449.061 305.029 447.686 303.333 447.686C301.636 447.686 300.26 449.061 300.26 450.758C300.26 452.454 301.636 453.83 303.333 453.83Z" fill="#0EC3BF"/>
<path d="M315.99 453.83C317.686 453.83 319.062 452.454 319.062 450.758C319.062 449.061 317.686 447.686 315.99 447.686C314.293 447.686 312.917 449.061 312.917 450.758C312.917 452.454 314.293 453.83 315.99 453.83Z" fill="#0EC3BF"/>
<path d="M328.644 453.83C330.341 453.83 331.716 452.454 331.716 450.758C331.716 449.061 330.341 447.686 328.644 447.686C326.948 447.686 325.572 449.061 325.572 450.758C325.572 452.454 326.948 453.83 328.644 453.83Z" fill="#0EC3BF"/>
<path d="M297.004 464.752C298.7 464.752 300.076 463.376 300.076 461.68C300.076 459.983 298.7 458.607 297.004 458.607C295.307 458.607 293.932 459.983 293.932 461.68C293.932 463.376 295.307 464.752 297.004 464.752Z" fill="#0EC3BF"/>
<path d="M309.661 464.752C311.358 464.752 312.733 463.376 312.733 461.68C312.733 459.983 311.358 458.607 309.661 458.607C307.964 458.607 306.589 459.983 306.589 461.68C306.589 463.376 307.964 464.752 309.661 464.752Z" fill="#0EC3BF"/>
<path d="M322.318 464.752C324.015 464.752 325.39 463.376 325.39 461.68C325.39 459.983 324.015 458.607 322.318 458.607C320.621 458.607 319.246 459.983 319.246 461.68C319.246 463.376 320.621 464.752 322.318 464.752Z" fill="#0EC3BF"/>
<path d="M290.675 476.851C292.372 476.851 293.747 475.476 293.747 473.779C293.747 472.082 292.372 470.707 290.675 470.707C288.979 470.707 287.603 472.082 287.603 473.779C287.603 475.476 288.979 476.851 290.675 476.851Z" fill="#0EC3BF"/>
<path d="M303.333 476.851C305.029 476.851 306.405 475.476 306.405 473.779C306.405 472.082 305.029 470.707 303.333 470.707C301.636 470.707 300.26 472.082 300.26 473.779C300.26 475.476 301.636 476.851 303.333 476.851Z" fill="#0EC3BF"/>
<path d="M315.99 476.851C317.686 476.851 319.062 475.476 319.062 473.779C319.062 472.082 317.686 470.707 315.99 470.707C314.293 470.707 312.917 472.082 312.917 473.779C312.917 475.476 314.293 476.851 315.99 476.851Z" fill="#0EC3BF"/>
<path d="M328.644 476.851C330.341 476.851 331.716 475.476 331.716 473.779C331.716 472.082 330.341 470.707 328.644 470.707C326.948 470.707 325.572 472.082 325.572 473.779C325.572 475.476 326.948 476.851 328.644 476.851Z" fill="#0EC3BF"/>
<path d="M571.081 209.219L558.709 203.642L541.365 210.876V219.511C541.365 219.511 568.291 218.612 568.285 218.655C568.285 218.655 598.656 228.766 609.871 227.211C621.089 225.655 656.807 175.877 656.807 175.877L638.862 160.166L604.696 208.857L571.081 209.219Z" fill="#FCC1BB"/>
<path opacity="0.1" d="M571.081 209.219L558.709 203.643L541.365 210.876V219.511C541.365 219.511 568.291 218.612 568.285 218.655C568.285 218.655 569.045 218.909 570.366 219.327L579.056 209.133L571.081 209.219Z" fill="black"/>
<path d="M626.782 174.319C626.782 174.319 639.206 152.228 647.144 145.228C651.963 140.978 658.679 139.655 663.213 139.272C666.064 139.03 668.503 141.292 668.526 144.153C668.589 152.884 666.314 171.879 648.352 191.43L626.782 174.319Z" fill="#263238"/>
<path d="M626.782 170.16C626.782 170.16 641.909 177.277 650.767 191.277L645.935 195.011C645.935 195.011 636.084 182.585 623.761 175.45L626.782 170.16Z" fill="#0EC3BF"/>
<path d="M596.426 90.4077L590.296 100.042C590.296 100.042 593.491 102.399 597.962 100.796L596.426 90.4077Z" fill="#EB827E"/>
<path d="M595.381 96.5032C591.619 96.5032 588.559 93.2304 588.559 89.206C588.559 85.1836 591.621 81.9087 595.381 81.9087C599.143 81.9087 602.203 85.1815 602.203 89.206C602.203 93.2304 599.143 96.5032 595.381 96.5032ZM595.381 83.4468C592.467 83.4468 590.095 86.0314 590.095 89.208C590.095 92.3845 592.467 94.9692 595.381 94.9692C598.295 94.9692 600.667 92.3845 600.667 89.208C600.667 86.0314 598.295 83.4468 595.381 83.4468Z" fill="#0EC3BF"/>
<path d="M592.731 89.0665C592.719 90.3097 593.349 91.3296 594.164 91.3398C594.98 91.3501 595.705 90.2994 595.684 89.0911C595.664 87.8827 595.066 86.83 594.249 86.832C593.431 86.832 592.758 87.8254 592.731 89.0665Z" fill="#1A2E35"/>
<path d="M640.707 81.3005C641.254 97.8263 641.844 104.823 634.346 114.041C622.477 123.829 602.617 124.98 597.147 108.935C592.215 94.5023 592.149 69.9603 607.623 61.8049C618.653 55.9966 632.304 60.2279 638.114 71.2588C639.744 74.3596 640.631 77.7983 640.707 81.3005Z" fill="#FCC1BB"/>
<path opacity="0.2" d="M617.495 121.077L617.376 120.268C617.112 118.478 615.342 117.323 613.597 117.803L606.879 119.644C610.109 120.998 613.759 121.434 617.495 121.077Z" fill="#1A2E35"/>
<path d="M597.204 83.4339C596.987 83.4585 596.77 83.3746 596.627 83.2087C595.603 81.9204 594.019 81.2036 592.375 81.2855C592.022 81.3285 591.699 81.0807 591.65 80.7285C591.611 80.3721 591.863 80.0485 592.217 79.9993C594.298 79.8519 596.317 80.7346 597.622 82.3628C597.855 82.6373 597.823 83.0489 597.55 83.2824L597.548 83.2844C597.448 83.3623 597.329 83.4155 597.204 83.4339Z" fill="#1A2E35"/>
<path d="M616.88 116.902L620.501 141.448L641 137.205L634.434 112.081L616.88 116.902Z" fill="#FCC1BB"/>
<path d="M596.344 67.9012C603.318 81.1809 608.151 69.0338 606.871 79.739C605.589 90.4422 609.435 93.9116 609.435 93.9116L623.477 114.853C624.22 115.961 625.646 116.326 626.866 115.791C630.51 114.194 632.873 114.544 634.172 115.072C635.083 115.443 636.107 115.334 636.844 114.681C640.015 111.875 647.539 103.835 649.85 89.0884C654.378 60.1943 632.175 55.7889 632.175 55.7889C619.837 53.2248 622.999 40.1479 615.665 40.1499C610.074 40.152 611.721 49.3539 611.721 49.3539C611.721 49.3539 605.732 44.8687 602.261 46.3965C597.775 48.3688 601.753 57.5728 601.753 57.5728C601.753 57.5728 589.507 54.8796 596.344 67.9012Z" fill="#1A2E35"/>
<path d="M610.78 86.134H590.293L591.281 84.0859H610.78V86.134Z" fill="#0EC3BF"/>
<path d="M606.576 88.6625C605.982 91.9886 606.738 95.4129 608.677 98.1799C611.276 101.832 615.415 100.203 617.068 96.3038C618.567 92.773 618.991 86.6472 615.229 84.3657C611.469 82.0821 607.348 84.6033 606.576 88.6625Z" fill="#FFC3BD"/>
<path d="M611.35 132.471C611.35 132.471 624.51 120.031 638.316 121.037C647.703 121.719 650.605 133.495 650.605 133.495L611.35 132.471Z" fill="#263238"/>
<path opacity="0.2" d="M611.35 132.471C611.35 132.471 624.51 120.031 638.316 121.037C647.703 121.719 650.605 133.495 650.605 133.495L611.35 132.471Z" fill="white"/>
<path d="M620.241 283.006L591.398 142.187C590.243 136.549 594.054 131.371 599.713 130.9C617.804 129.391 654.284 127.932 666.482 139.129C694.915 165.232 697.17 285.054 697.17 285.054L620.241 283.006Z" fill="#263238"/>
<path opacity="0.5" d="M599.573 139.981C599.573 139.981 594.984 141.739 591.928 144.786L601.417 191.109C609.892 172.124 609.308 139.981 609.308 139.981H599.573Z" fill="black"/>
<path d="M513.588 207.457L501.35 201.339L484.198 209.276V218.748C484.198 218.748 510.829 217.763 510.823 217.81C510.823 217.81 540.862 228.904 551.954 227.196C563.048 225.49 598.377 170.874 598.377 170.874L580.627 153.636L546.834 207.055L513.588 207.457Z" fill="#FCC1BB"/>
<path d="M568.682 169.166C568.682 169.166 580.971 144.932 588.821 137.251C596.671 129.571 609.619 130.603 609.619 130.603C609.619 130.603 614.227 158.709 590.015 187.941L568.682 169.166Z" fill="#263238"/>
<path d="M568.682 164.601C568.682 164.601 583.644 172.41 592.405 187.771L587.627 191.867C587.627 191.867 577.882 178.235 565.696 170.405L568.682 164.601Z" fill="#263238"/>
<path opacity="0.2" d="M568.682 164.601C568.682 164.601 583.644 172.41 592.405 187.771L587.627 191.867C587.627 191.867 577.882 178.235 565.696 170.405L568.682 164.601Z" fill="white"/>
<path d="M611.948 436.738L618.966 470.742L632.811 468.694L629.483 435.587L611.948 436.738Z" fill="#FCC1BB"/>
<path opacity="0.2" d="M631.677 457.399L629.483 435.587L611.948 436.738L616.335 457.995L631.677 457.399Z" fill="black"/>
<path d="M694.1 281.982C694.1 281.982 701.131 318.848 677.066 318.848C653.001 318.848 620.994 326.714 620.994 326.714C620.994 326.714 630.21 335.468 632.258 447.026L612.29 447.876C612.29 447.876 579.121 321.963 585.665 308.126C594.881 288.639 642.603 281.982 642.603 281.982H694.1Z" fill="#0EC3BF"/>
<path opacity="0.2" d="M694.1 281.982C694.1 281.982 701.131 318.848 677.066 318.848C653.001 318.848 620.994 326.714 620.994 326.714C620.994 326.714 630.21 335.468 632.258 447.026L612.29 447.876C612.29 447.876 579.121 321.963 585.665 308.126C594.881 288.639 642.603 281.982 642.603 281.982H694.1Z" fill="black"/>
<path d="M608.056 441.901L635.205 441.219L634.339 452.484L611.56 453.459L608.056 441.901Z" fill="#0EC3BF"/>
<path opacity="0.5" d="M608.056 441.901L635.205 441.219L634.339 452.484L611.56 453.459L608.056 441.901Z" fill="white"/>
<path d="M612.734 472.882C610.942 473.097 609.049 472.993 608.363 472.293C608.001 471.879 607.941 471.283 608.212 470.804C608.404 470.378 608.756 470.046 609.191 469.876C611.519 468.923 616.895 471.195 617.131 471.295C617.264 471.352 617.348 471.486 617.338 471.631C617.328 471.774 617.231 471.897 617.096 471.944C615.673 472.385 614.212 472.698 612.734 472.882ZM610.104 470.353C609.883 470.376 609.666 470.431 609.461 470.517C609.182 470.599 608.957 470.806 608.849 471.074C608.646 471.531 608.76 471.725 608.871 471.83C609.653 472.688 613.293 472.274 615.937 471.621C614.087 470.832 612.109 470.404 610.104 470.353Z" fill="#0EC3BF"/>
<path d="M617.043 471.946C616.998 471.965 616.947 471.967 616.9 471.951C615.083 471.393 611.243 468.682 611.355 467.023C611.343 466.628 611.581 466.116 612.511 465.909C613.188 465.753 613.901 465.882 614.483 466.263C616.5 467.553 617.352 471.396 617.393 471.574C617.418 471.697 617.373 471.822 617.276 471.901C617.205 471.947 617.123 471.961 617.043 471.946ZM612.816 466.529L612.617 466.535C612.009 466.66 611.999 466.914 611.984 467.004C612.013 467.994 614.579 470.167 616.494 471.008C616.127 469.395 615.273 467.93 614.049 466.818C613.684 466.574 613.248 466.474 612.816 466.529Z" fill="#0EC3BF"/>
<path d="M618.327 469.749L634.068 467.86C634.662 467.789 635.225 468.139 635.424 468.702L639.807 481.167C640.204 482.269 639.631 483.485 638.529 483.882C638.388 483.934 638.24 483.968 638.093 483.989C632.407 484.571 627.324 484.865 620.26 485.724C611.925 486.727 614.159 487.471 604.373 488.785C598.477 489.572 596.591 482.989 599.054 482.359C610.341 479.54 611.118 475.938 615.046 471.305C615.91 470.4 617.077 469.847 618.327 469.749Z" fill="#0EC3BF"/>
<path d="M571.437 445.847L584.493 477.55L597.208 475.012L588.462 441.09L571.437 445.847Z" fill="#FCC1BB"/>
<path opacity="0.2" d="M594.297 463.719L588.462 441.09L571.437 445.847L579.926 466.457L594.297 463.719Z" fill="black"/>
<path d="M694.1 281.982C694.1 281.982 708.967 320.435 659.821 318.848C641 318.239 559.485 337.28 559.485 337.28C559.485 337.28 574.186 344.96 592.618 447.876L571.753 452.613C571.753 452.613 512.606 335.756 519.15 321.92C528.366 302.432 625.357 281.982 625.357 281.982H694.1Z" fill="#0EC3BF"/>
<path d="M569.194 451.288L593.941 445.998L596.501 456.238L572.778 461.7L569.194 451.288Z" fill="#0EC3BF"/>
<path opacity="0.5" d="M569.194 451.288L593.941 445.998L596.501 456.238L572.778 461.7L569.194 451.288Z" fill="white"/>
<path d="M576.635 479C574.843 479.215 572.95 479.109 572.264 478.41C571.902 477.997 571.842 477.401 572.112 476.922C572.307 476.496 572.657 476.164 573.091 475.994C575.42 475.043 580.796 477.313 581.032 477.413C581.165 477.47 581.249 477.604 581.241 477.749C581.23 477.892 581.134 478.015 580.999 478.062C579.574 478.501 578.113 478.816 576.635 479ZM574.005 476.469C573.784 476.491 573.567 476.547 573.362 476.633C573.083 476.715 572.858 476.922 572.749 477.192C572.547 477.647 572.661 477.841 572.772 477.948C573.554 478.806 577.194 478.392 579.838 477.739C577.99 476.95 576.012 476.52 574.005 476.469Z" fill="#0EC3BF"/>
<path d="M580.944 478.062C580.899 478.08 580.847 478.082 580.8 478.066C578.984 477.509 575.143 474.797 575.256 473.138C575.244 472.743 575.481 472.233 576.411 472.024C577.089 471.868 577.802 471.997 578.384 472.378C580.401 473.666 581.253 477.511 581.294 477.689C581.318 477.812 581.273 477.937 581.177 478.017C581.107 478.062 581.023 478.078 580.944 478.062ZM576.716 472.647L576.518 472.653C575.909 472.778 575.899 473.032 575.885 473.122C575.914 474.111 578.48 476.284 580.395 477.126C580.028 475.512 579.174 474.047 577.949 472.935C577.587 472.692 577.149 472.589 576.716 472.647Z" fill="#0EC3BF"/>
<path d="M582.228 475.864L597.969 473.974C598.563 473.902 599.126 474.252 599.325 474.815L603.708 487.28C604.105 488.384 603.532 489.598 602.43 489.996C602.288 490.047 602.141 490.082 601.993 490.102C596.308 490.684 591.225 490.979 584.161 491.837C575.825 492.84 578.06 493.584 568.274 494.899C562.378 495.685 560.492 489.103 562.955 488.472C574.242 485.654 575.018 482.051 578.947 477.418C579.811 476.517 580.98 475.964 582.228 475.864Z" fill="#0EC3BF"/>
<path d="M739.083 456.014C726.565 453.956 708 451.043 699.732 450.433C697.917 450.3 695.637 450.2 693.133 450.132V385.919H677.41V450.132C674.903 450.2 672.625 450.298 670.811 450.433C662.543 451.041 643.977 453.956 631.459 456.014C624.248 457.2 618.966 463.434 618.966 470.742V473.986H634.216L636.264 469.423C636.264 469.423 664.927 464.458 674.585 463.745C679.914 463.352 690.632 463.352 695.963 463.745C705.622 464.456 734.282 469.423 734.282 469.423L736.33 473.986H751.58V470.742C751.578 463.434 746.296 457.2 739.083 456.014Z" fill="#263238"/>
<path opacity="0.1" d="M739.083 456.014C726.565 453.956 708 451.043 699.732 450.433C697.917 450.3 695.637 450.2 693.133 450.132V385.919H677.41V450.132C674.903 450.2 672.625 450.298 670.811 450.433C662.543 451.041 643.977 453.956 631.459 456.014C624.248 457.2 618.966 463.434 618.966 470.742V473.986H634.216L636.264 469.423C636.264 469.423 664.927 464.458 674.585 463.745C679.914 463.352 690.632 463.352 695.963 463.745C705.622 464.456 734.282 469.423 734.282 469.423L736.33 473.986H751.58V470.742C751.578 463.434 746.296 457.2 739.083 456.014Z" fill="white"/>
<path d="M690.591 395.137H679.954C675.921 395.137 672.65 391.869 672.65 387.834V333.558H697.895V387.834C697.895 391.867 694.624 395.137 690.591 395.137Z" fill="#263238"/>
<path opacity="0.2" d="M697.895 333.556H672.65V348.542H697.895V333.556Z" fill="black"/>
<path d="M745.186 495.492C751.125 495.492 755.939 490.678 755.939 484.74C755.939 478.801 751.125 473.987 745.186 473.987C739.248 473.987 734.434 478.801 734.434 484.74C734.434 490.678 739.248 495.492 745.186 495.492Z" fill="#263238"/>
<path d="M625.356 495.492C631.294 495.492 636.108 490.678 636.108 484.74C636.108 478.801 631.294 473.987 625.356 473.987C619.418 473.987 614.604 478.801 614.604 484.74C614.604 490.678 619.418 495.492 625.356 495.492Z" fill="#263238"/>
<path d="M770.619 320.776C755.558 316.936 740.083 314.822 724.562 314.433C708.569 314.032 648.704 314.374 634.488 314.368C617.184 314.362 599.878 316.494 583.088 320.776C572.534 323.467 575.787 338.699 585.321 338.875C586.162 338.891 767.131 338.836 767.795 338.867C777.767 339.319 781.404 323.527 770.619 320.776Z" fill="#0EC3BF"/>
<path opacity="0.3" d="M770.619 320.776C755.558 316.936 740.083 314.822 724.562 314.433C708.569 314.032 648.704 314.374 634.488 314.368C617.184 314.362 599.878 316.494 583.088 320.776C572.534 323.467 575.787 338.699 585.321 338.875C586.162 338.891 767.131 338.836 767.795 338.867C777.767 339.319 781.404 323.527 770.619 320.776Z" fill="black"/>
<path d="M587.989 338.548C618.389 330.797 650.588 330.797 680.988 338.548C692.488 341.481 697.393 323.708 685.889 320.773C652.311 312.21 616.668 312.21 583.09 320.773C571.603 323.704 576.469 341.485 587.989 338.548Z" fill="#0EC3BF"/>
<g opacity="0.4">
<path d="M587.989 338.548C618.389 330.797 650.588 330.797 680.988 338.548C692.488 341.481 697.393 323.708 685.889 320.773C652.311 312.21 616.668 312.21 583.09 320.773C571.603 323.704 576.469 341.485 587.989 338.548Z" fill="white"/>
</g>
<path d="M722.217 188.881C720.315 188.844 718.402 189.696 717.128 191.814C692.746 232.359 684.084 281.099 692.496 327.601C693.022 330.515 695.019 331.873 697.233 332.024C700.924 332.276 766.626 332.043 769.009 332.039C772.594 332.031 776.53 328.987 775.688 324.334C767.871 281.122 776.479 235.601 799.081 198.015C801.889 193.344 797.748 188.961 793.56 188.881C791.655 188.844 726.406 188.961 722.217 188.881Z" fill="#0EC3BF"/>
<path opacity="0.2" d="M722.217 188.881C720.315 188.844 718.402 189.696 717.128 191.814C692.746 232.359 684.084 281.099 692.496 327.601C693.022 330.515 695.019 331.873 697.233 332.024C700.924 332.276 766.626 332.043 769.009 332.039C772.594 332.031 776.53 328.987 775.688 324.334C767.871 281.122 776.479 235.601 799.081 198.015C801.889 193.344 797.748 188.961 793.56 188.881C791.655 188.844 726.406 188.961 722.217 188.881Z" fill="black"/>
<path d="M704.346 324.334C696.528 281.122 705.136 235.602 727.739 198.016C731.825 191.222 721.204 185.037 717.128 191.814C692.746 232.36 684.084 281.099 692.496 327.601C693.903 335.371 705.747 332.078 704.346 324.334Z" fill="#0EC3BF"/>
<g opacity="0.4">
<path d="M704.346 324.334C696.528 281.122 705.136 235.602 727.739 198.016C731.825 191.222 721.204 185.037 717.128 191.814C692.746 232.36 684.084 281.099 692.496 327.601C693.903 335.371 705.747 332.078 704.346 324.334Z" fill="white"/>
</g>
<path d="M623.879 270.904C644.983 290.207 666.088 309.51 687.191 328.811C691.562 332.807 698.095 326.309 693.708 322.294C672.605 302.991 651.5 283.688 630.396 264.385C626.026 260.389 619.49 266.89 623.879 270.904Z" fill="#263238"/>
<g opacity="0.5">
<path d="M623.879 270.904C644.983 290.207 666.088 309.51 687.191 328.811C691.562 332.807 698.095 326.309 693.708 322.294C672.605 302.991 651.5 283.688 630.396 264.385C626.026 260.389 619.49 266.89 623.879 270.904Z" fill="white"/>
</g>
<path opacity="0.2" d="M630.396 264.387C626.028 260.392 619.492 266.89 623.879 270.904C627.916 274.597 631.955 278.29 635.991 281.982H649.634C643.219 276.117 636.807 270.251 630.396 264.387Z" fill="black"/>
<path d="M590.869 273.789C623.239 273.789 645.37 273.789 677.74 273.789C685.647 273.789 685.659 261.5 677.74 261.5C645.37 261.5 623.239 261.5 590.869 261.5C582.963 261.5 582.949 273.789 590.869 273.789Z" fill="#0EC3BF"/>
<g opacity="0.3">
<path d="M590.869 273.789C623.239 273.789 645.37 273.789 677.74 273.789C685.647 273.789 685.659 261.5 677.74 261.5C645.37 261.5 623.239 261.5 590.869 261.5C582.963 261.5 582.949 273.789 590.869 273.789Z" fill="white"/>
</g>
</svg>
